<svg width="332" height="127" viewBox="0 0 332 127" fill="none" xmlns="http://www.w3.org/2000/svg">
<path d="M1 56.6163C1 56.6163 40.2739 41.723 78.5187 40.5273C118.443 39.2792 183.219 35.5 199.327 51.5885C204.609 56.8643 206.483 66.9363 203.354 73.7113C196.204 89.1929 168.857 75.9184 156.037 64.6608C147.978 57.5835 143.504 51.2316 142.95 40.5273C141.728 16.9317 165.149 10.3995 188.253 5.33026C221.475 -1.95908 272.819 -0.326041 300.001 12.3702C319.471 21.4646 323.977 20.7467 330.203 40.5273C337.237 62.8794 295.87 70.4644 278.859 93.8225C270.132 105.806 258.724 126 258.724 126" stroke="black" stroke-width="2" stroke-dasharray="6 6"/>
</svg>
