<svg width="48" height="48" viewBox="0 0 48 48" fill="none" xmlns="http://www.w3.org/2000/svg">
<g clip-path="url(#clip0_1718_860)">
<path d="M22.5 31L14.5 43" stroke="black" stroke-width="2" stroke-linecap="round"/>
<path d="M18.5 30L3.5 45" stroke="black" stroke-width="2" stroke-linecap="round"/>
<path d="M16.7461 27L3.5 33" stroke="black" stroke-width="2" stroke-linecap="round"/>
<path d="M27.2586 16.1802C27.2397 16.1802 27.2207 16.1795 27.2015 16.1784L18.9636 15.664C18.8095 15.6545 18.6603 15.6059 18.53 15.523C18.3997 15.4401 18.2926 15.3255 18.2187 15.1899C18.1448 15.0543 18.1065 14.9021 18.1074 14.7477C18.1083 14.5933 18.1484 14.4416 18.2239 14.3069C18.2671 14.2297 19.3053 12.3991 21.2825 10.8024C23.9544 8.64512 27.0605 7.9454 30.2647 8.77913C30.396 8.81332 30.518 8.87633 30.6219 8.9636C30.7258 9.05086 30.8089 9.16017 30.8652 9.28359C30.9215 9.40701 30.9496 9.54143 30.9475 9.67708C30.9453 9.81273 30.913 9.94619 30.8528 10.0678L28.0766 15.6725C28.0011 15.8249 27.8845 15.9532 27.7399 16.0429C27.5954 16.1326 27.4287 16.1801 27.2586 16.1802Z" fill="#EB4034"/>
<path d="M33.8996 30.5455C33.6674 30.5454 33.4439 30.4569 33.2746 30.2979C33.1053 30.1388 33.003 29.9212 32.9885 29.6894L32.4744 21.4515C32.4632 21.272 32.5053 21.0932 32.5953 20.9376C32.6853 20.7819 32.8192 20.6563 32.9803 20.5764L38.585 17.8C38.7066 17.7398 38.8401 17.7074 38.9757 17.7053C39.1114 17.7032 39.2458 17.7313 39.3692 17.7877C39.4927 17.844 39.602 17.9271 39.6893 18.031C39.7766 18.1349 39.8396 18.257 39.8737 18.3883C40.7076 21.5925 40.0079 24.6986 37.8504 27.3705C36.254 29.3477 34.4231 30.3857 34.3459 30.4291C34.2096 30.5054 34.0559 30.5455 33.8996 30.5455Z" fill="#EB4034"/>
<path d="M46.5651 7.99048L40.6625 2.08788C40.5464 1.9718 40.4011 1.88917 40.242 1.84871C40.0829 1.80825 39.9158 1.81145 39.7583 1.85797C35.8068 3.0268 32.5632 4.85994 30.1166 7.3063C29.6064 7.81673 29.1162 8.36988 28.6601 8.95015C27.3338 10.6365 26.2259 12.6304 25.3675 14.8765C24.8208 16.3081 24.3756 17.8417 24.0444 19.4347C23.4659 22.2173 23.4348 24.2116 23.4337 24.2952C23.4322 24.417 23.4551 24.5378 23.501 24.6506C23.5469 24.7634 23.6149 24.8659 23.701 24.952C23.8723 25.1231 24.1045 25.2193 24.3466 25.2193H24.3578C24.4416 25.2184 26.4359 25.1873 29.2183 24.6089C30.8113 24.2776 32.3449 23.8325 33.7767 23.2855C36.0226 22.4271 38.0165 21.3195 39.7024 19.9933C40.2831 19.537 40.8363 19.0469 41.3467 18.5364C43.7933 16.0898 45.6264 12.8462 46.795 8.89469C46.8416 8.73723 46.8448 8.57012 46.8044 8.41098C46.7639 8.25184 46.6812 8.10657 46.5651 7.99048Z" fill="#96D3E3"/>
<path d="M29.8429 23.2334L25.4205 18.811C25.094 18.4846 24.5751 18.4533 24.2117 18.7382C23.9317 18.9576 23.665 19.1937 23.4132 19.445C20.3361 22.5221 20.2409 27.2898 20.2384 27.4912C20.2368 27.613 20.2596 27.7339 20.3055 27.8468C20.3515 27.9596 20.4195 28.0621 20.5057 28.1482C20.5904 28.233 20.691 28.3003 20.8017 28.3462C20.9125 28.3921 21.0312 28.4158 21.151 28.4158C21.155 28.4158 21.1588 28.4158 21.1627 28.4155C21.3641 28.413 26.1321 28.3178 29.209 25.2407C29.4603 24.9889 29.6963 24.7222 29.9157 24.4422C30.2006 24.0788 30.1694 23.5599 29.8429 23.2334Z" fill="#FFE317"/>
<path d="M25.4378 14.6938L22.7246 17.4073C22.6398 17.492 22.5725 17.5926 22.5266 17.7033C22.4807 17.8141 22.457 17.9328 22.457 18.0526C22.457 18.1725 22.4807 18.2912 22.5266 18.4019C22.5725 18.5127 22.6398 18.6133 22.7246 18.698L29.9547 25.9281C30.1256 26.0993 30.3578 26.1954 30.6 26.1954C30.8423 26.1954 31.0742 26.0993 31.2454 25.9281L33.9586 23.2149L25.4378 14.6938Z" fill="#3165AE"/>
<path d="M37.2816 14.1555C36.5378 14.1555 35.8383 13.8659 35.3123 13.3399C34.2266 12.2542 34.2266 10.4877 35.3123 9.40173C35.8383 8.87575 36.5378 8.58606 37.2816 8.58606C38.0253 8.58606 38.7248 8.87575 39.2508 9.40173C39.7768 9.9277 40.0664 10.627 40.0664 11.3709C40.0664 12.1147 39.7768 12.814 39.2508 13.3399C38.7248 13.8659 38.0253 14.1555 37.2816 14.1555Z" fill="white"/>
<path d="M37.2811 15.0485C36.2988 15.0485 35.3753 14.6659 34.6809 13.9714C33.247 12.5375 33.247 10.2044 34.6809 8.77056C35.3753 8.0761 36.299 7.69348 37.2811 7.69348C38.2634 7.69348 39.1868 8.0761 39.8815 8.77056C40.5762 9.46525 40.9586 10.3887 40.9586 11.371C40.9586 12.3533 40.5762 13.2768 39.8815 13.9714C39.1868 14.6659 38.2634 15.0485 37.2811 15.0485ZM37.2811 9.51914C36.7866 9.51914 36.3214 9.71182 35.9716 10.0615C35.2498 10.7836 35.2498 11.9584 35.9716 12.6805C36.3214 13.0302 36.7866 13.2228 37.2811 13.2228C37.7758 13.2228 38.2408 13.0302 38.5905 12.6805C38.9403 12.3308 39.1329 11.8657 39.1329 11.371C39.1329 10.8763 38.9403 10.4112 38.5905 10.0615C38.2408 9.71182 37.7758 9.51914 37.2811 9.51914Z" fill="#3165AE"/>
<path d="M47.7618 0.890893C47.5876 0.716737 47.3493 0.618789 47.1046 0.623581C46.9692 0.625159 43.7423 0.67951 39.7578 1.85793L46.7945 8.89464C47.9729 4.91009 48.0273 1.6833 48.0289 1.54795C48.0305 1.42615 48.0077 1.30526 47.9618 1.19241C47.9159 1.07956 47.8479 0.977041 47.7618 0.890893Z" fill="#EB4034"/>
</g>
<defs>
<clipPath id="clip0_1718_860">
<rect width="48" height="48" fill="white"/>
</clipPath>
</defs>
</svg>
