<svg width="312" height="322" viewBox="0 0 312 322" fill="none" xmlns="http://www.w3.org/2000/svg">
<g clip-path="url(#clip0_3788_1449)">
<path d="M90.6829 32.1389C105.05 40.5583 123.779 34.6778 130.447 19.405C139.997 -2.46833 171.003 -2.46833 180.553 19.405C187.221 34.6778 205.95 40.5583 220.317 32.1389C240.75 20.1651 266.061 38.11 260.825 61.1974C257.146 77.4128 268.747 93.1766 285.29 94.7106C308.86 96.8962 318.676 126.306 300.83 141.846C288.295 152.759 288.295 172.241 300.83 183.154C318.676 198.694 308.86 228.104 285.29 230.29C268.747 231.823 257.146 247.588 260.825 263.802C266.061 286.89 240.75 304.835 220.317 292.862C205.95 284.442 187.221 290.322 180.553 305.596C171.003 327.468 139.997 327.468 130.447 305.596C123.779 290.322 105.05 284.442 90.6829 292.862C70.25 304.835 44.9396 286.89 50.1758 263.802C53.8535 247.588 42.2529 231.823 25.7104 230.29C2.14076 228.104 -7.67664 198.694 10.1702 183.154C22.7047 172.241 22.7047 152.759 10.1702 141.846C-7.67664 126.306 2.14075 96.8962 25.7104 94.7106C42.2529 93.1766 53.8535 77.4128 50.1758 61.1974C44.9396 38.11 70.25 20.1651 90.6829 32.1389Z" fill="#3165AE" stroke="#D8D7E6" stroke-width="0.4"/>
</g>
<defs>
<clipPath id="clip0_3788_1449">
<rect width="312" height="322" fill="white"/>
</clipPath>
</defs>
</svg>
