<svg width="267" height="275" viewBox="0 0 267 275" fill="none" xmlns="http://www.w3.org/2000/svg">
<g clip-path="url(#clip0_3788_1444)">
<path d="M77.8563 25.6585C90.1902 32.8818 106.268 27.8367 111.992 14.7336C120.19 -4.0323 146.808 -4.0323 155.006 14.7336C160.73 27.8367 176.808 32.8818 189.142 25.6585C206.683 15.3857 228.411 30.7813 223.916 50.5888C220.758 64.5006 230.717 78.0249 244.918 79.341C265.152 81.2161 273.579 106.448 258.259 119.78C247.498 129.143 247.498 145.857 258.259 155.22C273.579 168.552 265.152 193.784 244.918 195.659C230.717 196.975 220.758 210.5 223.916 224.411C228.411 244.219 206.683 259.614 189.142 249.342C176.808 242.118 160.73 247.163 155.006 260.267C146.808 279.032 120.19 279.032 111.992 260.267C106.268 247.163 90.1902 242.118 77.8563 249.342C60.3155 259.614 38.5875 244.219 43.0826 224.411C46.2397 210.5 36.2811 196.975 22.08 195.659C1.84648 193.784 -6.58135 168.552 8.73941 155.22C19.4998 145.857 19.4998 129.143 8.73941 119.78C-6.58135 106.448 1.84647 81.2161 22.08 79.341C36.2811 78.0249 46.2397 64.5006 43.0826 50.5888C38.5875 30.7813 60.3155 15.3857 77.8563 25.6585Z" fill="white" stroke="#D8D7E6" stroke-width="0.4"/>
</g>
<defs>
<clipPath id="clip0_3788_1444">
<rect width="267" height="275" fill="white"/>
</clipPath>
</defs>
</svg>
