<svg width="205" height="205" viewBox="0 0 205 205" fill="none" xmlns="http://www.w3.org/2000/svg">
<g clip-path="url(#clip0_3788_1453)">
<path d="M102.234 205C158.696 205 204.467 159.109 204.467 102.5C204.467 45.8908 158.696 0 102.234 0C45.7717 0 0 45.8908 0 102.5C0 159.109 45.7717 205 102.234 205Z" fill="#FFF3C6"/>
<path d="M102.235 156.876C133.22 156.876 158.339 131.691 158.339 100.626C158.339 69.5595 133.22 44.3755 102.235 44.3755C71.2495 44.3755 46.1309 69.5595 46.1309 100.626C46.1309 131.691 71.2495 156.876 102.235 156.876Z" fill="#FFE317"/>
<path d="M94.4233 106.009C96.2353 106.009 97.7041 104.65 97.7041 102.973C97.7041 101.296 96.2353 99.937 94.4233 99.937C92.6114 99.937 91.1426 101.296 91.1426 102.973C91.1426 104.65 92.6114 106.009 94.4233 106.009Z" fill="black"/>
<path d="M110.501 105.01C112.313 105.01 113.782 103.65 113.782 101.974C113.782 100.297 112.313 98.9375 110.501 98.9375C108.69 98.9375 107.221 100.297 107.221 101.974C107.221 103.65 108.69 105.01 110.501 105.01Z" fill="black"/>
<path d="M89.7637 113.858C92.7691 119.441 98.8771 122.441 104.683 121.337C112.116 119.926 114.935 112.592 115.063 112.232" stroke="black" stroke-width="2" stroke-miterlimit="10"/>
</g>
<defs>
<clipPath id="clip0_3788_1453">
<rect width="205" height="205" fill="white"/>
</clipPath>
</defs>
</svg>
